<svg xmlns="http://www.w3.org/2000/svg" viewBox="0 0 32 32" width="32" height="32" fill="white">
<path d="M16 0C7.164 0 0 7.163 0 16c0 2.818.733 5.563 2.12 7.984L.07 31.466a.5.5 0 00.635.635l7.483-2.05A15.931 15.931 0 0016 32c8.836 0 16-7.163 16-16S24.836 0 16 0zm0 29.5a13.46 13.46 0 01-6.85-1.828.5.5 0 00-.354-.05l-4.464 1.224 1.225-4.465a.5.5 0 00-.05-.354A13.46 13.46 0 012.5 16C2.5 8.547 8.547 2.5 16 2.5S29.5 8.547 29.5 16 23.453 29.5 16 29.5z"/>
<path d="M24.245 19.46c-.366-.184-2.16-1.067-2.496-1.187s-.58-.184-.82.184-.943 1.187-1.157 1.437-.427.275-.793.092c-.366-.184-1.548-.571-2.946-1.819-1.089-.973-1.825-2.176-2.039-2.542-.213-.366-.023-.564.161-.747.165-.165.366-.427.55-.641.184-.213.245-.366.366-.61.122-.244.061-.458-.03-.641s-.82-1.969-1.124-2.699c-.296-.712-.597-.616-.82-.626l-.7-.013a1.347 1.347 0 00-.976.458c-.335.366-1.275 1.244-1.275 3.033s1.305 3.516 1.486 3.757c.183.244 2.573 3.926 6.238 5.512.872.376 1.553.6 2.084.767.876.279 1.6...
</svg>
